<?xml version="1.0" encoding="UTF-8" standalone="no"?>
<!DOCTYPE svg PUBLIC "-//W3C//DTD SVG 1.1//EN" "http://www.w3.org/Graphics/SVG/1.1/DTD/svg11.dtd">
<svg width="100%" height="100%" viewBox="0 0 363 186" version="1.1" xmlns="http://www.w3.org/2000/svg" xmlns:xlink="http://www.w3.org/1999/xlink" xml:space="preserve" xmlns:serif="http://www.serif.com/" style="fill-rule:evenodd;clip-rule:evenodd;stroke-linejoin:round;stroke-miterlimit:2;">
    <g transform="matrix(1,0,0,1,-113.046,-639.797)">
        <g transform="matrix(4.16667,0,0,4.16667,0,0)">
            <path d="M57.804,197.874C57.804,197.874 57.688,197.883 57.464,197.902C57.231,197.913 56.928,197.965 56.454,197.966C55.515,198.002 54.181,197.989 52.445,197.608C50.726,197.246 48.591,196.418 46.606,194.678C44.641,192.949 42.925,190.28 42.269,187.033C41.611,183.811 41.856,180.016 43.757,176.397C44.711,174.607 46.117,172.872 47.998,171.564C49.867,170.251 52.154,169.408 54.463,169.119C56.777,168.832 59.075,169.049 61.222,169.55C63.374,170.052 65.386,170.84 67.269,171.79C68.214,172.262 69.124,172.774 70.014,173.31C70.718,173.705 71.638,174.273 72.27,174.578C73.667,175.31 75.202,176.025 76.688,176.587C79.673,177.763 82.768,178.342 85.616,178.287C88.473,178.263 91.007,177.632 93.194,176.885C95.388,176.115 97.302,175.144 98.984,173.934C100.626,172.695 101.997,171.218 102.979,169.577C103.947,167.94 104.608,166.162 104.881,164.4C105.162,162.644 105.136,160.918 104.954,159.44C104.773,157.96 104.475,156.726 104.243,155.876C103.999,155.008 103.869,154.545 103.869,154.545L103.867,154.537C103.751,154.124 103.991,153.696 104.403,153.58C104.587,153.529 104.774,153.548 104.935,153.622C104.935,153.622 105.403,153.835 106.231,154.35C106.654,154.601 107.142,154.95 107.7,155.401C108.261,155.849 108.893,156.402 109.538,157.1C110.81,158.497 112.225,160.474 113.171,163.175C114.117,165.852 114.588,169.269 113.939,172.935C113.31,176.587 111.593,180.45 108.746,183.701C105.937,186.962 101.999,189.613 97.572,190.873C93.155,192.205 88.398,192.126 84.052,191.204C79.681,190.277 75.647,188.615 71.962,186.645C70.109,185.636 68.412,184.557 66.695,183.338C65.755,182.689 65.177,182.197 64.356,181.584C63.734,181.092 63.105,180.623 62.471,180.198C59.938,178.502 57.318,177.293 55.022,177.215C53.881,177.168 52.828,177.358 51.863,177.799C50.906,178.248 50.028,178.95 49.308,179.847C47.858,181.651 47.161,184.134 47.235,186.374C47.28,188.637 48.051,190.677 49.207,192.174C50.373,193.667 51.856,194.661 53.203,195.254C54.544,195.866 55.76,196.123 56.542,196.269C56.928,196.359 57.29,196.381 57.503,196.418C57.726,196.448 57.841,196.464 57.841,196.464C58.229,196.517 58.501,196.874 58.449,197.262C58.403,197.598 58.128,197.847 57.804,197.874Z" style="fill:rgb(0,18,25);fill-rule:nonzero;"/>
        </g>
        <g transform="matrix(4.16667,0,0,4.16667,0,0)">
            <path d="M41.63,196.146C41.63,196.146 41.553,196.105 41.405,196.026C41.255,195.935 41.038,195.858 40.745,195.638C40.129,195.247 39.377,194.585 38.577,193.569C36.975,191.554 35.492,188.096 35.025,183.721C34.784,181.535 34.829,179.118 35.269,176.581C35.509,175.317 35.864,174.032 36.328,172.74C36.811,171.455 37.427,170.177 38.175,168.932C38.936,167.696 39.846,166.507 40.896,165.417C41.965,164.316 43.117,163.387 44.471,162.469L45.336,161.915L46.352,161.327C47.042,160.949 47.705,160.604 48.418,160.292C49.825,159.662 51.303,159.132 52.827,158.75C55.867,157.947 59.075,157.703 62.127,157.943C65.183,158.188 68.051,158.966 70.596,159.92C73.119,160.834 75.519,162.119 77.049,162.488C78.755,162.948 80.176,162.789 81.206,162.202C82.227,161.61 82.868,160.499 82.835,159.487C82.818,158.488 82.204,157.522 81.333,156.991C80.498,156.396 79.594,156.167 78.997,155.982C78.371,155.847 78.036,155.775 78.036,155.775L78.015,155.771C77.82,155.729 77.697,155.537 77.738,155.342C77.767,155.208 77.868,155.108 77.991,155.072C77.991,155.072 78.338,154.971 79.024,154.822C79.714,154.717 80.76,154.561 82.192,154.87C82.899,155.03 83.7,155.356 84.481,155.945C85.266,156.523 85.989,157.426 86.404,158.559C87.299,160.807 86.738,163.923 84.591,166.065C83.543,167.141 82.148,167.938 80.659,168.382C79.166,168.827 77.595,168.917 76.089,168.773C75.362,168.704 74.346,168.509 73.861,168.389L73.411,168.287L73.298,168.261L73.119,168.208L73.06,168.193L72.825,168.129C72.516,168.042 72.205,167.954 71.892,167.866C70.708,167.516 69.499,167.158 68.269,166.794C65.891,166.079 63.56,165.385 61.196,164.903C58.838,164.417 56.42,164.233 54.021,164.56C52.826,164.737 51.64,165.019 50.485,165.423C49.91,165.614 49.324,165.858 48.783,166.092L47.977,166.462L47.066,166.939C46.109,167.473 45.06,168.145 44.192,168.897C43.32,169.668 42.491,170.487 41.782,171.399C41.081,172.315 40.463,173.287 39.945,174.298C39.444,175.316 39.021,176.359 38.693,177.412C38.034,179.517 37.704,181.637 37.663,183.607C37.548,187.563 38.518,190.863 39.647,192.851C40.204,193.847 40.811,194.564 41.244,194.941C41.439,195.155 41.68,195.294 41.803,195.398C41.938,195.499 42.008,195.551 42.008,195.551C42.164,195.667 42.197,195.889 42.08,196.045C41.974,196.187 41.782,196.227 41.63,196.146Z" style="fill:rgb(1,94,116);fill-rule:nonzero;"/>
        </g>
        <g transform="matrix(4.16667,0,0,4.16667,0,0)">
            <path d="M32.183,188.798C32.183,188.798 32.051,188.655 31.805,188.388C31.563,188.121 31.212,187.722 30.816,187.149C30.427,186.582 29.967,185.882 29.527,185.023C29.091,184.165 28.651,183.163 28.281,182.026C27.525,179.76 27.032,176.949 27.148,173.883C27.211,172.352 27.438,170.763 27.845,169.18C28.231,167.589 28.882,166.03 29.656,164.539C30.448,163.055 31.441,161.669 32.572,160.459C33.672,159.218 34.965,158.211 36.248,157.342C36.914,156.941 37.541,156.509 38.22,156.207C38.551,156.044 38.878,155.883 39.202,155.724C39.534,155.591 39.863,155.46 40.187,155.33C40.833,155.067 41.474,154.862 42.1,154.69C42.72,154.501 43.326,154.36 43.913,154.253C45.075,153.993 46.162,153.924 47.106,153.828C48.063,153.799 48.889,153.79 49.567,153.818C50.927,153.903 51.69,154.013 51.69,154.013C51.69,154.013 50.967,154.333 49.727,154.786C49.12,155.036 48.383,155.338 47.538,155.685C46.721,156.081 45.784,156.443 44.831,156.963C44.345,157.201 43.844,157.447 43.354,157.75C42.854,158.032 42.337,158.311 41.844,158.657C41.592,158.817 41.337,158.979 41.078,159.144C40.833,159.324 40.586,159.506 40.335,159.691C39.825,160.044 39.351,160.454 38.86,160.854C37.914,161.694 36.985,162.592 36.176,163.611C35.365,164.624 34.599,165.698 34.001,166.877C33.375,168.036 32.84,169.255 32.436,170.514C32.037,171.773 31.713,173.049 31.49,174.319C31.287,175.59 31.142,176.844 31.08,178.051C31.036,179.256 31.009,180.417 31.077,181.489C31.12,182.567 31.224,183.559 31.334,184.446C31.457,185.328 31.579,186.114 31.709,186.753C31.854,187.378 31.947,187.91 32.054,188.255C32.138,188.609 32.183,188.798 32.183,188.798Z" style="fill:rgb(9,147,150);fill-rule:nonzero;"/>
        </g>
    </g>
</svg>
